<svg xmlns="http://www.w3.org/2000/svg" xmlns:xlink="http://www.w3.org/1999/xlink" width="40" zoomAndPan="magnify" viewBox="0 0 30 30.000001" height="40" preserveAspectRatio="xMidYMid meet" version="1.0"><defs><clipPath id="43953fe3a0"><path d="M 5.074219 3.15625 L 24.671875 3.15625 L 24.671875 25.65625 L 5.074219 25.65625 Z M 5.074219 3.15625 " clip-rule="nonzero"/></clipPath></defs><g clip-path="url(#43953fe3a0)"><path fill="#dc4b26" d="M 17.347656 5.367188 C 17.082031 5.453125 16.816406 5.515625 16.546875 5.566406 C 16.011719 5.664062 15.472656 5.710938 14.933594 5.722656 C 14.398438 5.730469 13.859375 5.707031 13.328125 5.640625 C 12.792969 5.574219 12.265625 5.46875 11.75 5.296875 C 11.496094 5.207031 11.242188 5.109375 11.007812 4.964844 C 10.894531 4.890625 10.78125 4.8125 10.6875 4.710938 C 10.59375 4.609375 10.515625 4.476562 10.535156 4.339844 C 10.554688 4.472656 10.644531 4.570312 10.746094 4.640625 C 10.847656 4.710938 10.964844 4.765625 11.085938 4.8125 C 11.324219 4.902344 11.574219 4.964844 11.824219 5.007812 C 12.332031 5.101562 12.847656 5.140625 13.363281 5.160156 C 14.394531 5.191406 15.433594 5.144531 16.433594 4.964844 C 16.683594 4.921875 16.929688 4.863281 17.164062 4.792969 C 17.398438 4.722656 17.628906 4.632812 17.804688 4.519531 C 17.890625 4.464844 17.957031 4.394531 17.972656 4.363281 C 17.980469 4.347656 17.980469 4.339844 17.980469 4.328125 C 17.984375 4.316406 17.972656 4.292969 17.953125 4.261719 C 17.910156 4.203125 17.828125 4.132812 17.734375 4.074219 C 17.636719 4.011719 17.53125 3.953125 17.417969 3.90625 C 17.191406 3.804688 16.949219 3.730469 16.703125 3.660156 C 16.457031 3.585938 16.207031 3.53125 15.949219 3.480469 C 15.445312 3.371094 14.925781 3.304688 14.398438 3.234375 C 14.925781 3.167969 15.457031 3.15625 15.992188 3.183594 C 16.523438 3.21875 17.058594 3.28125 17.59375 3.460938 C 17.726562 3.507812 17.859375 3.558594 17.992188 3.628906 C 18.125 3.699219 18.257812 3.785156 18.378906 3.933594 C 18.441406 4.007812 18.5 4.097656 18.523438 4.21875 C 18.550781 4.335938 18.535156 4.464844 18.496094 4.570312 C 18.410156 4.785156 18.265625 4.898438 18.140625 4.996094 C 17.882812 5.179688 17.613281 5.277344 17.347656 5.367188 Z M 24.628906 15.285156 C 24.429688 14.703125 24.121094 14.175781 23.769531 13.703125 C 23.417969 13.226562 23.019531 12.796875 22.601562 12.398438 C 21.761719 11.605469 20.847656 10.933594 19.953125 10.265625 C 19.503906 9.929688 19.070312 9.589844 18.652344 9.238281 C 18.441406 9.058594 18.238281 8.875 18.054688 8.679688 C 17.867188 8.488281 17.699219 8.28125 17.5625 8.058594 C 17.421875 7.839844 17.3125 7.605469 17.269531 7.355469 C 17.222656 7.105469 17.246094 6.84375 17.332031 6.59375 C 17.34375 6.53125 17.375 6.46875 17.402344 6.410156 C 17.425781 6.347656 17.453125 6.285156 17.488281 6.226562 L 17.59375 6.050781 L 17.710938 5.882812 L 17.773438 5.796875 L 17.839844 5.71875 L 17.972656 5.558594 C 18.066406 5.453125 18.164062 5.355469 18.261719 5.253906 C 18.148438 5.335938 18.035156 5.421875 17.925781 5.511719 L 17.765625 5.652344 L 17.6875 5.722656 L 17.464844 5.957031 L 17.335938 6.128906 C 17.289062 6.183594 17.253906 6.25 17.214844 6.3125 C 17.179688 6.375 17.136719 6.4375 17.109375 6.507812 C 16.980469 6.773438 16.914062 7.085938 16.941406 7.394531 C 16.960938 7.703125 17.0625 7.996094 17.195312 8.265625 C 17.332031 8.535156 17.503906 8.777344 17.6875 9.003906 C 17.871094 9.230469 18.070312 9.441406 18.269531 9.644531 C 18.675781 10.054688 19.109375 10.421875 19.539062 10.785156 C 20.394531 11.515625 21.265625 12.210938 22.039062 12.980469 C 22.421875 13.367188 22.78125 13.769531 23.089844 14.199219 C 23.398438 14.628906 23.65625 15.082031 23.820312 15.566406 C 23.988281 16.046875 24.066406 16.550781 24.042969 17.058594 C 24.023438 17.5625 23.902344 18.070312 23.714844 18.5625 C 23.535156 19.054688 23.269531 19.523438 22.984375 19.980469 C 22.695312 20.4375 22.363281 20.871094 22.015625 21.292969 C 21.839844 21.503906 21.664062 21.714844 21.472656 21.914062 L 21.191406 22.21875 L 20.902344 22.515625 C 20.804688 22.617188 20.710938 22.71875 20.613281 22.8125 L 20.3125 23.105469 C 20.210938 23.199219 20.113281 23.300781 20.011719 23.394531 L 19.703125 23.675781 C 18.882812 24.433594 18.023438 25.148438 17.160156 25.871094 C 18.132812 25.304688 19.066406 24.675781 19.972656 24 C 20.199219 23.828125 20.421875 23.65625 20.640625 23.476562 L 20.96875 23.207031 C 21.078125 23.117188 21.183594 23.019531 21.289062 22.929688 C 21.394531 22.835938 21.503906 22.742188 21.609375 22.644531 L 21.917969 22.351562 C 22.125 22.15625 22.320312 21.945312 22.519531 21.738281 C 22.621094 21.640625 22.710938 21.527344 22.808594 21.421875 C 22.902344 21.3125 23 21.207031 23.089844 21.09375 C 23.269531 20.871094 23.449219 20.644531 23.613281 20.402344 C 23.945312 19.925781 24.246094 19.417969 24.472656 18.863281 C 24.699219 18.3125 24.855469 17.71875 24.890625 17.101562 C 24.921875 16.488281 24.828125 15.863281 24.628906 15.285156 Z M 11.648438 6.367188 C 11.328125 5.90625 10.914062 5.554688 10.476562 5.25 L 10.753906 5.539062 C 10.839844 5.640625 10.933594 5.734375 11.011719 5.839844 C 11.179688 6.042969 11.328125 6.261719 11.441406 6.484375 C 11.550781 6.714844 11.621094 6.953125 11.609375 7.183594 C 11.605469 7.417969 11.511719 7.632812 11.375 7.828125 C 11.105469 8.222656 10.683594 8.535156 10.257812 8.828125 C 9.828125 9.121094 9.382812 9.410156 8.933594 9.703125 C 8.488281 9.996094 8.039062 10.304688 7.613281 10.652344 C 7.183594 10.996094 6.777344 11.378906 6.414062 11.8125 C 6.050781 12.242188 5.738281 12.730469 5.515625 13.265625 C 5.292969 13.796875 5.15625 14.367188 5.117188 14.941406 C 5.074219 15.515625 5.125 16.089844 5.234375 16.636719 C 5.347656 17.1875 5.515625 17.722656 5.71875 18.234375 C 6.136719 19.253906 6.683594 20.203125 7.300781 21.089844 C 8.527344 22.867188 10 24.433594 11.578125 25.871094 C 10.261719 24.191406 8.949219 22.519531 7.859375 20.726562 C 7.328125 19.824219 6.839844 18.902344 6.476562 17.941406 C 6.304688 17.460938 6.160156 16.972656 6.066406 16.476562 C 5.972656 15.984375 5.933594 15.488281 5.972656 15 C 6.035156 14.027344 6.417969 13.101562 7.046875 12.324219 C 7.664062 11.535156 8.480469 10.886719 9.320312 10.25 C 9.738281 9.929688 10.175781 9.621094 10.59375 9.277344 C 10.804688 9.101562 11.011719 8.921875 11.207031 8.722656 C 11.402344 8.523438 11.589844 8.300781 11.734375 8.042969 C 11.875 7.789062 11.964844 7.480469 11.9375 7.175781 C 11.917969 6.875 11.800781 6.597656 11.648438 6.367188 Z M 11.648438 6.367188 " fill-opacity="1" fill-rule="nonzero"/></g></svg>